<svg xmlns="http://www.w3.org/2000/svg" xmlns:xlink="http://www.w3.org/1999/xlink" xmlns:svgjs="http://svgjs.com/svgjs" version="1.1" width="20px" height="20px" x="0" y="0" viewBox="0 0 68 68" style="enable-background:new 0 0 512 512" xml:space="preserve" class=""><g><g><path d="m65.3 26.5c-.8-13.2-11.8-23.9-25.5-23.9-13.6 0-24.7 10.6-25.5 23.9-.9 15 11.1 27.1 25.4 27.1 14.8 0 26.5-12.4 25.6-27.1zm-23.8-13.2 6.4-4.7c.6-.4.8-1.2.6-1.8l-.2-.7c3.8 1.5 7.2 3.9 9.8 7.1h-.7c-.7 0-1.3.5-1.6 1.1l-2.4 7.7-6.1 2-5.8-4.2zm-10.1-7.1-.2.7c-.2.7 0 1.4.6 1.8l6.4 4.7v6.4l-5.8 4.2-6.1-2-2.4-7.6c-.2-.7-.9-1.1-1.6-1.1h-.7c2.6-3.2 5.9-5.7 9.8-7.1zm-1.5 32.9h-7.9c-1.5 0-1.7 1.6-1.8 1.8-2.3-3.5-3.5-7.4-3.8-11.6l.6.4c.6.4 1.3.4 1.9 0l6.4-4.7 6.1 2 2.2 6.8zm15.4 11.2.6.4c-4 1.1-8.3 1.1-12.2 0l.6-.4c.6-.4.8-1.2.6-1.8l-2.4-7.5 3.8-5.2h7.1l3.8 5.2-2.5 7.5c-.2.7.1 1.4.6 1.8zm14.2-9.4-.2-.7c-.2-.7-.8-1.1-1.5-1.1h-7.9l-3.9-5.3 2.2-6.7 6.2-2 6.4 4.7c.3.2.6.3 1 .3s.7-.1 1-.3l.6-.4c-.3 4-1.6 8-3.9 11.5z" fill="#e1e1e6" data-original="#000000" class=""/><path d="m4.4 47.6 3.3-3.3c.4-.4.4-1 0-1.4s-1-.4-1.4 0l-3.3 3.3c-.4.4-.4 1 0 1.4s1 .4 1.4 0z" fill="#e1e1e6" data-original="#000000" class=""/><path d="m10.3 41.7 2.6-2.6c.4-.4.4-1 0-1.4s-1-.4-1.4 0l-2.6 2.6c-.4.4-.4 1 0 1.4.3.4 1 .4 1.4 0z" fill="#e1e1e6" data-original="#000000" class=""/><path d="m4.9 56.6 1.1-1.1c.4-.4.4-1 0-1.4s-1-.4-1.4 0l-1.1 1.1c-.4.4-.4 1 0 1.4.3.4 1 .4 1.4 0z" fill="#e1e1e6" data-original="#000000" class=""/><path d="m11.9 46.7-5.3 5.3c-.4.4-.4 1 0 1.4s1 .4 1.4 0l5.3-5.3c.4-.4.4-1 0-1.4-.3-.4-1-.4-1.4 0z" fill="#e1e1e6" data-original="#000000" class=""/><path d="m4.4 38.4 1.1-1.1c.4-.4.4-1 0-1.4s-1-.4-1.4 0l-1.1 1.1c-.4.4-.4 1 0 1.4s1 .4 1.4 0z" fill="#e1e1e6" data-original="#000000" class=""/><path d="m7.5 35.3 5.3-5.3c.4-.4.4-1 0-1.4s-1-.4-1.4 0l-5.3 5.3c-.4.4-.4 1 0 1.4s1 .4 1.4 0z" fill="#e1e1e6" data-original="#000000" class=""/><path d="m33 62.6-1.1 1.1c-.4.4-.4 1 0 1.4s1 .4 1.4 0l1.1-1.1c.4-.4.4-1 0-1.4s-1-.4-1.4 0z" fill="#e1e1e6" data-original="#000000" class=""/><path d="m40.4 55.2-5.4 5.4c-.4.4-.4 1 0 1.4s1 .4 1.4 0l5.3-5.3c.4-.4.4-1 0-1.4s-1-.5-1.3-.1z" fill="#e1e1e6" data-original="#000000" class=""/><path d="m29 55.2-8.5 8.5c-.4.4-.4 1 0 1.4s1 .4 1.4 0l8.5-8.5c.4-.4.4-1 0-1.4s-1.1-.4-1.4 0z" fill="#e1e1e6" data-original="#000000" class=""/><path d="m16.1 58.6-4.6 4.6c-.4.4-.4 1 0 1.4s1 .4 1.4 0l4.6-4.6c.4-.4.4-1 0-1.4s-1-.4-1.4 0z" fill="#e1e1e6" data-original="#000000" class=""/><path d="m21.4 54.7c-.4-.4-1-.4-1.4 0l-1.7 1.7c-.4.4-.4 1 0 1.4s1 .4 1.4 0l1.7-1.7c.4-.3.4-1 0-1.4z" fill="#e1e1e6" data-original="#000000" class=""/><path d="m14.2 53.9c-.4-.4-1-.4-1.4 0l-8.5 8.5c-.4.4-.4 1 0 1.4s1 .4 1.4 0l8.5-8.5c.4-.3.4-1 0-1.4z" fill="#e1e1e6" data-original="#000000" class=""/></g></g></svg>
